<?xml version="1.0" standalone="no"?>
<!DOCTYPE svg PUBLIC "-//W3C//DTD SVG 20010904//EN"
 "http://www.w3.org/TR/2001/REC-SVG-20010904/DTD/svg10.dtd">
<svg version="1.0" xmlns="http://www.w3.org/2000/svg"
 width="1008.000000pt" height="1008.000000pt" viewBox="0 0 1008.000000 1008.000000"
 preserveAspectRatio="xMidYMid meet">
<metadata>
Created by potrace 1.14, written by Peter Selinger 2001-2017
</metadata>
<g transform="translate(0.000000,1008.000000) scale(0.100000,-0.100000)"
fill="#000000" stroke="none">
<path d="M1607 10004 c-3 -3 -36 -5 -75 -5 l-69 0 0 -47 c0 -42 -3 -180 -19
-812 -2 -91 -5 -169 -5 -175 -1 -17 11 -159 16 -185 3 -13 7 -56 11 -95 3 -38
8 -79 11 -90 2 -11 6 -38 8 -60 12 -111 18 -158 31 -222 3 -16 6 -35 8 -43 3
-14 11 -53 43 -205 8 -38 16 -81 18 -95 5 -28 9 -53 31 -155 8 -38 17 -86 20
-105 9 -54 -15 -48 259 -65 61 -3 183 -12 290 -21 55 -4 136 -9 286 -18 30 -2
65 -7 77 -10 17 -6 24 -2 32 16 9 20 113 405 125 463 3 11 43 166 91 345 47
179 88 337 90 352 3 15 13 51 22 80 l17 53 1510 1 c831 0 1515 -3 1520 -7 6
-4 9 -52 8 -116 -3 -113 -11 -666 -18 -1153 -5 -380 -16 -1111 -21 -1390 -2
-124 -4 -229 -4 -235 0 -5 1 -30 3 -55 2 -25 -1 -53 -5 -62 -5 -9 -4 -19 2
-23 6 -3 7 -14 2 -23 -4 -9 -7 -83 -7 -164 l1 -148 -51 0 c-76 -1 -2178 -1
-2191 0 -6 0 -11 6 -11 13 0 6 -10 46 -22 87 -12 41 -24 82 -26 90 -41 149
-58 206 -66 221 -5 10 -8 22 -7 26 1 4 -5 28 -12 53 -7 25 -14 50 -16 55 -2
10 -67 237 -105 368 l-20 68 -52 -6 c-29 -3 -63 -8 -77 -10 -14 -3 -50 -7 -81
-10 -31 -2 -69 -6 -85 -9 -16 -2 -51 -7 -79 -10 -27 -4 -66 -8 -85 -11 -19 -3
-57 -7 -85 -10 -27 -3 -52 -8 -57 -13 -4 -4 -7 -95 -7 -202 0 -107 0 -204 0
-215 0 -11 0 -76 0 -145 1 -69 1 -129 1 -135 -1 -12 -2 -174 -1 -195 0 -8 0
-116 0 -240 0 -124 0 -234 0 -245 0 -11 0 -333 0 -715 0 -382 3 -697 7 -701 4
-3 36 -16 72 -28 36 -12 72 -25 80 -28 8 -4 17 -7 20 -8 3 -1 14 -5 25 -10
123 -49 304 -109 360 -120 98 -18 259 -42 353 -51 l52 -5 0 30 c0 16 5 33 10
36 8 5 8 11 1 19 -6 7 -9 15 -6 17 4 5 12 43 19 104 3 22 8 58 11 80 2 22 7
64 11 93 3 29 7 61 9 71 2 10 6 42 10 72 3 30 10 81 15 114 5 33 12 87 16 120
3 33 8 69 11 80 3 17 13 111 16 152 0 7 7 15 16 17 9 3 467 4 1019 4 l1003 0
-6 -282 c-13 -654 -33 -1532 -51 -2316 -3 -151 -7 -338 -9 -415 -2 -77 -4
-144 -4 -150 -1 -10 -2715 -15 -2724 -5 -4 5 -112 436 -121 485 -4 19 -55 226
-76 305 -10 39 -21 84 -27 115 -8 37 -11 50 -13 50 -1 0 -4 11 -7 25 -7 39
-11 55 -13 55 -1 0 -3 11 -6 24 -2 13 -14 60 -25 105 -12 45 -22 86 -23 91
-15 61 -16 61 -59 58 -51 -4 -177 -12 -272 -18 -38 -2 -70 -4 -70 -5 0 0 -31
-3 -70 -5 -66 -3 -138 -11 -195 -20 -31 -5 -104 -16 -215 -30 -102 -14 -91 1
-110 -150 -1 -5 -4 -28 -8 -50 -4 -22 -10 -57 -13 -79 -3 -21 -8 -48 -10 -60
-6 -28 -13 -73 -18 -116 -3 -19 -12 -80 -21 -135 -21 -130 -24 -148 -31 -187
-3 -18 -7 -53 -9 -78 -2 -25 -6 -83 -10 -130 -4 -47 -9 -107 -11 -135 -2 -27
-6 -77 -8 -110 -3 -33 -7 -94 -10 -135 -3 -41 -7 -97 -10 -125 -21 -215 -23
-302 -12 -420 4 -38 9 -97 11 -130 2 -33 7 -87 10 -120 6 -54 12 -124 18 -195
2 -23 7 -25 57 -30 30 -3 74 -2 98 1 23 3 45 3 47 -1 4 -7 78 -3 101 5 6 2 28
0 48 -5 20 -4 38 -4 41 0 2 4 23 4 45 0 22 -4 58 -4 80 0 22 4 40 4 40 0 0 -4
18 -4 41 0 22 4 56 4 75 0 19 -4 36 -4 39 0 2 4 23 4 45 0 22 -4 58 -4 80 0
22 4 40 4 40 0 0 -4 18 -4 41 0 22 4 56 4 75 0 19 -4 36 -4 39 0 2 4 23 4 45
0 22 -4 58 -4 80 0 22 4 40 4 40 0 0 -4 18 -4 41 0 22 4 56 4 75 0 19 -4 36
-4 39 0 2 4 23 4 45 0 22 -4 58 -4 80 0 22 4 40 4 40 0 0 -4 18 -4 41 0 22 4
56 4 75 0 19 -4 36 -4 39 0 2 4 23 4 45 0 22 -4 58 -4 80 0 22 4 40 4 40 0 0
-4 18 -4 41 0 22 4 56 4 75 0 19 -4 36 -4 39 0 2 4 23 4 45 0 22 -4 58 -4 80
0 22 4 40 4 40 0 0 -4 18 -4 41 0 22 4 56 4 75 0 19 -4 36 -4 39 0 2 4 23 4
45 0 22 -4 58 -4 80 0 22 4 40 4 40 0 0 -4 18 -4 41 0 22 4 56 4 75 0 19 -4
36 -4 39 0 2 4 23 4 45 0 22 -4 58 -4 80 0 22 4 40 4 40 0 0 -4 18 -4 41 0 22
4 56 4 75 0 19 -4 36 -4 39 0 2 4 23 4 45 0 22 -4 58 -4 80 0 22 4 40 4 40 0
0 -4 18 -4 41 0 22 4 56 4 75 0 19 -4 36 -4 39 0 2 4 23 4 45 0 22 -4 58 -4
80 0 22 4 40 4 40 0 0 -4 18 -4 41 0 22 4 56 4 75 0 19 -4 36 -4 39 0 2 4 23
4 45 0 22 -4 58 -4 80 0 22 4 40 4 40 0 0 -4 18 -4 41 0 22 4 56 4 75 0 19 -4
36 -4 39 0 2 4 23 4 45 0 22 -4 58 -4 80 0 22 4 40 4 40 0 0 -4 18 -4 41 0 22
4 56 4 75 0 19 -4 36 -4 39 0 2 4 23 4 45 0 22 -4 58 -4 80 0 22 4 40 4 40 0
0 -4 18 -4 41 0 22 4 56 4 75 0 19 -4 36 -4 39 0 2 4 23 4 45 0 22 -4 58 -4
80 0 22 4 40 4 40 0 0 -4 18 -4 41 0 22 4 56 4 75 0 19 -4 36 -4 39 0 2 4 23
4 45 0 22 -4 58 -4 80 0 22 4 40 4 40 0 0 -4 18 -4 41 0 22 4 56 4 75 0 19 -4
36 -4 39 0 2 4 23 4 45 0 22 -4 58 -4 80 0 22 4 40 4 40 0 0 -4 18 -4 41 0 22
4 56 4 75 0 19 -4 36 -4 39 0 2 4 23 4 45 0 22 -4 58 -4 80 0 22 4 40 4 40 0
0 -4 18 -4 41 0 22 4 56 4 75 0 19 -4 36 -4 39 0 2 4 23 4 45 0 22 -4 58 -4
80 0 22 4 40 4 40 0 0 -4 18 -4 41 0 22 4 56 4 75 0 19 -4 36 -4 39 0 2 4 23
4 45 0 22 -4 58 -4 80 0 22 4 40 4 40 0 0 -4 18 -4 41 0 22 4 56 4 75 0 19 -4
36 -4 39 0 2 4 23 4 45 0 22 -4 58 -4 80 0 22 4 40 4 40 0 0 -4 18 -4 41 0 22
4 56 4 75 0 19 -4 36 -4 39 0 2 4 23 4 45 0 32 -6 40 -5 36 5 -2 7 -2 16 1 19
3 3 8 25 10 48 6 66 11 103 13 103 1 0 3 9 15 114 4 29 8 63 10 75 2 11 6 41
9 66 3 25 8 54 10 65 2 11 7 45 10 75 4 30 9 67 11 82 5 25 -7 36 -45 43 -3 0
-45 14 -94 29 -49 16 -94 29 -100 31 -6 1 -18 4 -26 7 -21 8 -104 33 -112 34
-5 1 -9 2 -10 4 -2 1 -10 3 -18 5 -8 2 -53 15 -100 30 -47 15 -89 28 -95 29
-5 1 -26 7 -45 13 -19 6 -80 25 -135 41 -55 17 -139 42 -187 57 -48 15 -90 26
-93 26 -2 0 -24 7 -47 15 -24 9 -47 17 -53 18 -46 10 -86 30 -81 41 2 7 2 16
-1 19 -5 5 -7 85 -3 104 2 4 1 12 0 17 -1 6 -3 147 -6 315 -2 168 -6 463 -10
655 -3 193 -5 359 -4 370 1 11 1 25 1 30 -3 198 -12 785 -16 1075 -3 212 -7
399 -8 415 -1 17 2 36 7 43 4 6 5 12 0 12 -5 0 -10 111 -11 248 -1 136 -4 434
-8 662 -3 228 -8 561 -10 740 -3 179 -7 492 -10 695 -3 204 -7 514 -10 690 -2
176 -7 502 -10 725 -13 849 -11 1083 5 1086 8 2 26 5 40 8 45 10 75 16 95 20
11 3 43 10 70 16 28 6 61 14 75 16 14 3 41 9 60 14 19 5 50 12 67 15 18 3 63
12 100 21 38 9 77 18 87 20 11 2 51 16 90 31 39 15 73 28 76 29 3 0 14 4 25 9
148 61 323 128 333 128 6 0 12 4 12 9 0 4 7 8 16 8 14 0 15 8 9 58 -4 31 -9
73 -11 92 -2 19 -7 51 -10 70 -3 19 -8 55 -10 80 -2 25 -6 59 -8 75 -8 57 -19
160 -20 188 -1 19 -7 29 -21 33 -22 5 -26 5 -130 5 -93 0 -101 0 -165 0 -30 0
-71 0 -90 0 -19 1 -55 1 -80 0 -25 -1 -52 -1 -60 0 -23 1 -155 1 -250 0 -30 0
-71 0 -90 0 -19 1 -55 1 -80 0 -25 -1 -52 -1 -60 0 -23 1 -155 1 -250 0 -30 0
-71 0 -90 0 -19 1 -55 1 -80 0 -25 -1 -52 -1 -60 0 -23 1 -155 1 -250 0 -30 0
-71 0 -90 0 -19 1 -55 1 -80 0 -25 -1 -52 -1 -60 0 -23 1 -155 1 -250 0 -30 0
-71 0 -90 0 -19 1 -55 1 -80 0 -25 -1 -52 -1 -60 0 -23 1 -155 1 -250 0 -30 0
-71 0 -90 0 -19 1 -55 1 -80 0 -25 -1 -52 -1 -60 0 -23 1 -155 1 -250 0 -30 0
-71 0 -90 0 -19 1 -55 1 -80 0 -25 -1 -52 -1 -60 0 -23 1 -155 1 -250 0 -30 0
-71 0 -90 0 -19 1 -55 1 -80 0 -25 -1 -52 -1 -60 0 -23 1 -155 1 -250 0 -30 0
-71 0 -90 0 -19 1 -55 1 -80 0 -25 -1 -52 -1 -60 0 -23 1 -155 1 -250 0 -30 0
-71 0 -90 0 -19 1 -55 1 -80 0 -25 -1 -52 -1 -60 0 -23 1 -155 1 -250 0 -30 0
-71 0 -90 0 -19 1 -55 1 -80 0 -25 -1 -52 -1 -60 0 -23 1 -155 1 -250 0 -30 0
-71 0 -90 0 -19 1 -55 1 -80 0 -25 -1 -52 -1 -60 0 -23 1 -155 1 -250 0 -30 0
-71 0 -90 0 -19 1 -55 1 -80 0 -25 -1 -52 -1 -60 0 -38 1 -169 1 -205 -1 -22
-2 -49 -2 -60 -2 -72 4 -178 2 -183 -2 -2 -3 -12 -1 -22 4 -10 5 -20 7 -23 4z"/>
</g>
</svg>
